<mxfile host="Electron" modified="2024-05-19T22:29:53.597Z" agent="Mozilla/5.0 (Windows NT 10.0; Win64; x64) AppleWebKit/537.36 (KHTML, like Gecko) draw.io/23.0.2 Chrome/120.0.6099.109 Electron/28.1.0 Safari/537.36" etag="U8yE3mxoSwiIgyf9eZcF" version="23.0.2" type="device">
  <diagram id="C5RBs43oDa-KdzZeNtuy" name="Page-1">
    <mxGraphModel dx="1658" dy="868" grid="0" gridSize="10" guides="1" tooltips="1" connect="1" arrows="1" fold="1" page="1" pageScale="1" pageWidth="827" pageHeight="1169" math="0" shadow="0">
      <root>
        <mxCell id="WIyWlLk6GJQsqaUBKTNV-0" />
        <mxCell id="WIyWlLk6GJQsqaUBKTNV-1" parent="WIyWlLk6GJQsqaUBKTNV-0" />
        <mxCell id="TW_aJG5ZMSPKFCEFSIef-5" value="No" style="rounded=0;html=1;jettySize=auto;orthogonalLoop=1;fontSize=11;endArrow=block;endFill=0;endSize=8;strokeWidth=1;shadow=0;labelBackgroundColor=none;edgeStyle=orthogonalEdgeStyle;" edge="1" parent="WIyWlLk6GJQsqaUBKTNV-1">
          <mxGeometry x="0.3333" y="20" relative="1" as="geometry">
            <mxPoint as="offset" />
            <mxPoint x="144" y="397" as="sourcePoint" />
            <mxPoint x="214" y="397" as="targetPoint" />
          </mxGeometry>
        </mxCell>
        <mxCell id="TW_aJG5ZMSPKFCEFSIef-3" style="edgeStyle=orthogonalEdgeStyle;rounded=0;orthogonalLoop=1;jettySize=auto;html=1;exitX=0.5;exitY=1;exitDx=0;exitDy=0;entryX=0.5;entryY=0;entryDx=0;entryDy=0;" edge="1" parent="WIyWlLk6GJQsqaUBKTNV-1" source="WIyWlLk6GJQsqaUBKTNV-3" target="TW_aJG5ZMSPKFCEFSIef-0">
          <mxGeometry relative="1" as="geometry" />
        </mxCell>
        <mxCell id="WIyWlLk6GJQsqaUBKTNV-3" value="INICIO" style="rounded=1;whiteSpace=wrap;html=1;fontSize=12;glass=0;strokeWidth=1;shadow=0;fillColor=#CCFFCC;" parent="WIyWlLk6GJQsqaUBKTNV-1" vertex="1">
          <mxGeometry x="34" y="87" width="120" height="40" as="geometry" />
        </mxCell>
        <mxCell id="WIyWlLk6GJQsqaUBKTNV-6" value="BOTON 1&lt;br&gt;¿PULSADO?" style="rhombus;whiteSpace=wrap;html=1;shadow=0;fontFamily=Helvetica;fontSize=12;align=center;strokeWidth=1;spacing=6;spacingTop=-4;fillColor=#FFCCCC;" parent="WIyWlLk6GJQsqaUBKTNV-1" vertex="1">
          <mxGeometry x="39" y="357" width="110" height="90" as="geometry" />
        </mxCell>
        <mxCell id="WIyWlLk6GJQsqaUBKTNV-8" value="Yes" style="rounded=0;html=1;jettySize=auto;orthogonalLoop=1;fontSize=11;endArrow=block;endFill=0;endSize=8;strokeWidth=1;shadow=0;labelBackgroundColor=none;edgeStyle=orthogonalEdgeStyle;exitX=0.5;exitY=1;exitDx=0;exitDy=0;" parent="WIyWlLk6GJQsqaUBKTNV-1" source="WIyWlLk6GJQsqaUBKTNV-10" target="WIyWlLk6GJQsqaUBKTNV-11" edge="1">
          <mxGeometry x="0.3333" y="20" relative="1" as="geometry">
            <mxPoint as="offset" />
            <mxPoint x="279" y="447" as="sourcePoint" />
          </mxGeometry>
        </mxCell>
        <mxCell id="WIyWlLk6GJQsqaUBKTNV-9" value="No" style="edgeStyle=orthogonalEdgeStyle;rounded=0;html=1;jettySize=auto;orthogonalLoop=1;fontSize=11;endArrow=block;endFill=0;endSize=8;strokeWidth=1;shadow=0;labelBackgroundColor=none;entryX=1;entryY=0.5;entryDx=0;entryDy=0;" parent="WIyWlLk6GJQsqaUBKTNV-1" source="WIyWlLk6GJQsqaUBKTNV-10" target="TW_aJG5ZMSPKFCEFSIef-1" edge="1">
          <mxGeometry x="-0.8889" y="15" relative="1" as="geometry">
            <mxPoint as="offset" />
            <mxPoint x="374" y="267" as="targetPoint" />
            <Array as="points">
              <mxPoint x="364" y="402" />
              <mxPoint x="364" y="292" />
            </Array>
          </mxGeometry>
        </mxCell>
        <mxCell id="WIyWlLk6GJQsqaUBKTNV-10" value="BOTON 2&lt;br&gt;¿PULSADO?" style="rhombus;whiteSpace=wrap;html=1;shadow=0;fontFamily=Helvetica;fontSize=12;align=center;strokeWidth=1;spacing=6;spacingTop=-4;fillColor=#FFCCCC;" parent="WIyWlLk6GJQsqaUBKTNV-1" vertex="1">
          <mxGeometry x="214" y="357" width="110" height="90" as="geometry" />
        </mxCell>
        <mxCell id="WIyWlLk6GJQsqaUBKTNV-11" value="ENCENDER LED2" style="rounded=1;whiteSpace=wrap;html=1;fontSize=12;glass=0;strokeWidth=1;shadow=0;fillColor=#FFFFCC;" parent="WIyWlLk6GJQsqaUBKTNV-1" vertex="1">
          <mxGeometry x="209" y="507" width="120" height="40" as="geometry" />
        </mxCell>
        <mxCell id="TW_aJG5ZMSPKFCEFSIef-4" style="edgeStyle=orthogonalEdgeStyle;rounded=0;orthogonalLoop=1;jettySize=auto;html=1;exitX=0.5;exitY=1;exitDx=0;exitDy=0;entryX=0.5;entryY=0;entryDx=0;entryDy=0;" edge="1" parent="WIyWlLk6GJQsqaUBKTNV-1" source="TW_aJG5ZMSPKFCEFSIef-0" target="TW_aJG5ZMSPKFCEFSIef-1">
          <mxGeometry relative="1" as="geometry" />
        </mxCell>
        <mxCell id="TW_aJG5ZMSPKFCEFSIef-10" style="edgeStyle=orthogonalEdgeStyle;rounded=0;orthogonalLoop=1;jettySize=auto;html=1;exitX=1;exitY=0.5;exitDx=0;exitDy=0;entryX=0;entryY=0.5;entryDx=0;entryDy=0;" edge="1" parent="WIyWlLk6GJQsqaUBKTNV-1" source="TW_aJG5ZMSPKFCEFSIef-0" target="TW_aJG5ZMSPKFCEFSIef-11">
          <mxGeometry relative="1" as="geometry">
            <mxPoint x="164" y="197" as="targetPoint" />
          </mxGeometry>
        </mxCell>
        <mxCell id="TW_aJG5ZMSPKFCEFSIef-0" value="CONFIGURACION PUERTOS Y ADC" style="rounded=1;whiteSpace=wrap;html=1;fontSize=12;glass=0;strokeWidth=1;shadow=0;fillColor=#FFFFCC;" vertex="1" parent="WIyWlLk6GJQsqaUBKTNV-1">
          <mxGeometry x="34" y="167" width="120" height="60" as="geometry" />
        </mxCell>
        <mxCell id="TW_aJG5ZMSPKFCEFSIef-9" style="edgeStyle=orthogonalEdgeStyle;rounded=0;orthogonalLoop=1;jettySize=auto;html=1;exitX=0.5;exitY=1;exitDx=0;exitDy=0;entryX=0.5;entryY=0;entryDx=0;entryDy=0;" edge="1" parent="WIyWlLk6GJQsqaUBKTNV-1" source="TW_aJG5ZMSPKFCEFSIef-1" target="WIyWlLk6GJQsqaUBKTNV-6">
          <mxGeometry relative="1" as="geometry" />
        </mxCell>
        <mxCell id="TW_aJG5ZMSPKFCEFSIef-1" value="LEER ENTRADA DIGITAL" style="rounded=1;whiteSpace=wrap;html=1;fontSize=12;glass=0;strokeWidth=1;shadow=0;fillColor=#FFFFCC;" vertex="1" parent="WIyWlLk6GJQsqaUBKTNV-1">
          <mxGeometry x="34" y="267" width="120" height="50" as="geometry" />
        </mxCell>
        <mxCell id="TW_aJG5ZMSPKFCEFSIef-6" value="Yes" style="edgeStyle=orthogonalEdgeStyle;rounded=0;html=1;jettySize=auto;orthogonalLoop=1;fontSize=11;endArrow=block;endFill=0;endSize=8;strokeWidth=1;shadow=0;labelBackgroundColor=none;" edge="1" parent="WIyWlLk6GJQsqaUBKTNV-1">
          <mxGeometry y="10" relative="1" as="geometry">
            <mxPoint as="offset" />
            <mxPoint x="93.5" y="447" as="sourcePoint" />
            <mxPoint x="93.5" y="507" as="targetPoint" />
          </mxGeometry>
        </mxCell>
        <mxCell id="TW_aJG5ZMSPKFCEFSIef-8" value="ENCENDER LED1" style="rounded=1;whiteSpace=wrap;html=1;fontSize=12;glass=0;strokeWidth=1;shadow=0;fillColor=#FFFFCC;" vertex="1" parent="WIyWlLk6GJQsqaUBKTNV-1">
          <mxGeometry x="34" y="507" width="120" height="40" as="geometry" />
        </mxCell>
        <mxCell id="TW_aJG5ZMSPKFCEFSIef-14" style="edgeStyle=orthogonalEdgeStyle;rounded=0;orthogonalLoop=1;jettySize=auto;html=1;exitX=1;exitY=0.5;exitDx=0;exitDy=0;entryX=0;entryY=0.5;entryDx=0;entryDy=0;" edge="1" parent="WIyWlLk6GJQsqaUBKTNV-1" source="TW_aJG5ZMSPKFCEFSIef-11" target="TW_aJG5ZMSPKFCEFSIef-12">
          <mxGeometry relative="1" as="geometry" />
        </mxCell>
        <mxCell id="TW_aJG5ZMSPKFCEFSIef-11" value="INICIAR CONVERSION ANALOGICA" style="rounded=1;whiteSpace=wrap;html=1;fontSize=12;glass=0;strokeWidth=1;shadow=0;fillColor=#FFFFCC;" vertex="1" parent="WIyWlLk6GJQsqaUBKTNV-1">
          <mxGeometry x="209" y="164.5" width="120" height="65" as="geometry" />
        </mxCell>
        <mxCell id="TW_aJG5ZMSPKFCEFSIef-17" style="edgeStyle=orthogonalEdgeStyle;rounded=0;orthogonalLoop=1;jettySize=auto;html=1;exitX=1;exitY=0;exitDx=0;exitDy=0;entryX=0.5;entryY=1;entryDx=0;entryDy=0;" edge="1" parent="WIyWlLk6GJQsqaUBKTNV-1" source="TW_aJG5ZMSPKFCEFSIef-12" target="TW_aJG5ZMSPKFCEFSIef-16">
          <mxGeometry relative="1" as="geometry" />
        </mxCell>
        <mxCell id="TW_aJG5ZMSPKFCEFSIef-23" style="edgeStyle=orthogonalEdgeStyle;rounded=0;orthogonalLoop=1;jettySize=auto;html=1;exitX=0.5;exitY=1;exitDx=0;exitDy=0;entryX=0.5;entryY=0;entryDx=0;entryDy=0;" edge="1" parent="WIyWlLk6GJQsqaUBKTNV-1" source="TW_aJG5ZMSPKFCEFSIef-12" target="TW_aJG5ZMSPKFCEFSIef-15">
          <mxGeometry relative="1" as="geometry" />
        </mxCell>
        <mxCell id="TW_aJG5ZMSPKFCEFSIef-12" value="¿TERMINADO?" style="rhombus;whiteSpace=wrap;html=1;shadow=0;fontFamily=Helvetica;fontSize=12;align=center;strokeWidth=1;spacing=6;spacingTop=-4;fillColor=#FFCCCC;" vertex="1" parent="WIyWlLk6GJQsqaUBKTNV-1">
          <mxGeometry x="374" y="152" width="110" height="90" as="geometry" />
        </mxCell>
        <mxCell id="TW_aJG5ZMSPKFCEFSIef-26" style="edgeStyle=orthogonalEdgeStyle;rounded=0;orthogonalLoop=1;jettySize=auto;html=1;exitX=0.5;exitY=1;exitDx=0;exitDy=0;entryX=0.5;entryY=0;entryDx=0;entryDy=0;" edge="1" parent="WIyWlLk6GJQsqaUBKTNV-1" source="TW_aJG5ZMSPKFCEFSIef-15" target="TW_aJG5ZMSPKFCEFSIef-25">
          <mxGeometry relative="1" as="geometry" />
        </mxCell>
        <mxCell id="TW_aJG5ZMSPKFCEFSIef-15" value="COMPARAR" style="rounded=1;whiteSpace=wrap;html=1;fontSize=12;glass=0;strokeWidth=1;shadow=0;fillColor=#FFFFCC;" vertex="1" parent="WIyWlLk6GJQsqaUBKTNV-1">
          <mxGeometry x="494" y="337" width="120" height="40" as="geometry" />
        </mxCell>
        <mxCell id="TW_aJG5ZMSPKFCEFSIef-19" style="edgeStyle=orthogonalEdgeStyle;rounded=0;orthogonalLoop=1;jettySize=auto;html=1;exitX=0.5;exitY=0;exitDx=0;exitDy=0;entryX=0.5;entryY=0;entryDx=0;entryDy=0;" edge="1" parent="WIyWlLk6GJQsqaUBKTNV-1" source="TW_aJG5ZMSPKFCEFSIef-16" target="TW_aJG5ZMSPKFCEFSIef-12">
          <mxGeometry relative="1" as="geometry" />
        </mxCell>
        <mxCell id="TW_aJG5ZMSPKFCEFSIef-16" value="ESPERAR QUE TERMINE" style="rounded=1;whiteSpace=wrap;html=1;fontSize=12;glass=0;strokeWidth=1;shadow=0;fillColor=#FFFFCC;" vertex="1" parent="WIyWlLk6GJQsqaUBKTNV-1">
          <mxGeometry x="504" y="97" width="120" height="40" as="geometry" />
        </mxCell>
        <mxCell id="TW_aJG5ZMSPKFCEFSIef-21" value="&lt;span style=&quot;color: rgb(0, 0, 0); font-family: Helvetica; font-size: 11px; font-style: normal; font-variant-ligatures: normal; font-variant-caps: normal; font-weight: 400; letter-spacing: normal; orphans: 2; text-align: center; text-indent: 0px; text-transform: none; widows: 2; word-spacing: 0px; -webkit-text-stroke-width: 0px; background-color: rgb(251, 251, 251); text-decoration-thickness: initial; text-decoration-style: initial; text-decoration-color: initial; float: none; display: inline !important;&quot;&gt;No&lt;/span&gt;" style="text;whiteSpace=wrap;html=1;" vertex="1" parent="WIyWlLk6GJQsqaUBKTNV-1">
          <mxGeometry x="484" y="147" width="20" height="30" as="geometry" />
        </mxCell>
        <mxCell id="TW_aJG5ZMSPKFCEFSIef-24" value="&lt;span style=&quot;color: rgb(0, 0, 0); font-family: Helvetica; font-size: 11px; font-style: normal; font-variant-ligatures: normal; font-variant-caps: normal; font-weight: 400; letter-spacing: normal; orphans: 2; text-align: center; text-indent: 0px; text-transform: none; widows: 2; word-spacing: 0px; -webkit-text-stroke-width: 0px; background-color: rgb(251, 251, 251); text-decoration-thickness: initial; text-decoration-style: initial; text-decoration-color: initial; float: none; display: inline !important;&quot;&gt;Yes&lt;/span&gt;" style="text;whiteSpace=wrap;html=1;" vertex="1" parent="WIyWlLk6GJQsqaUBKTNV-1">
          <mxGeometry x="444" y="257" width="20" height="30" as="geometry" />
        </mxCell>
        <mxCell id="TW_aJG5ZMSPKFCEFSIef-29" style="edgeStyle=orthogonalEdgeStyle;rounded=0;orthogonalLoop=1;jettySize=auto;html=1;exitX=0;exitY=0.5;exitDx=0;exitDy=0;entryX=0.5;entryY=0;entryDx=0;entryDy=0;" edge="1" parent="WIyWlLk6GJQsqaUBKTNV-1" source="TW_aJG5ZMSPKFCEFSIef-25" target="TW_aJG5ZMSPKFCEFSIef-27">
          <mxGeometry relative="1" as="geometry" />
        </mxCell>
        <mxCell id="TW_aJG5ZMSPKFCEFSIef-30" style="edgeStyle=orthogonalEdgeStyle;rounded=0;orthogonalLoop=1;jettySize=auto;html=1;exitX=1;exitY=0.5;exitDx=0;exitDy=0;" edge="1" parent="WIyWlLk6GJQsqaUBKTNV-1" source="TW_aJG5ZMSPKFCEFSIef-25" target="TW_aJG5ZMSPKFCEFSIef-28">
          <mxGeometry relative="1" as="geometry" />
        </mxCell>
        <mxCell id="TW_aJG5ZMSPKFCEFSIef-25" value="¿LUZ BAJA?" style="rhombus;whiteSpace=wrap;html=1;shadow=0;fontFamily=Helvetica;fontSize=12;align=center;strokeWidth=1;spacing=6;spacingTop=-4;fillColor=#FFCCCC;" vertex="1" parent="WIyWlLk6GJQsqaUBKTNV-1">
          <mxGeometry x="499" y="427" width="110" height="90" as="geometry" />
        </mxCell>
        <mxCell id="TW_aJG5ZMSPKFCEFSIef-36" style="edgeStyle=orthogonalEdgeStyle;rounded=0;orthogonalLoop=1;jettySize=auto;html=1;exitX=0.5;exitY=1;exitDx=0;exitDy=0;entryX=0.5;entryY=0;entryDx=0;entryDy=0;" edge="1" parent="WIyWlLk6GJQsqaUBKTNV-1" source="TW_aJG5ZMSPKFCEFSIef-27" target="TW_aJG5ZMSPKFCEFSIef-11">
          <mxGeometry relative="1" as="geometry">
            <Array as="points">
              <mxPoint x="439" y="647" />
              <mxPoint x="554" y="647" />
              <mxPoint x="554" y="677" />
              <mxPoint x="794" y="677" />
              <mxPoint x="794" y="37" />
              <mxPoint x="269" y="37" />
            </Array>
          </mxGeometry>
        </mxCell>
        <mxCell id="TW_aJG5ZMSPKFCEFSIef-27" value="ENCENDER &lt;br&gt;LED1 y LED2" style="rounded=1;whiteSpace=wrap;html=1;fontSize=12;glass=0;strokeWidth=1;shadow=0;fillColor=#FFFFCC;" vertex="1" parent="WIyWlLk6GJQsqaUBKTNV-1">
          <mxGeometry x="379" y="567" width="120" height="40" as="geometry" />
        </mxCell>
        <mxCell id="TW_aJG5ZMSPKFCEFSIef-34" style="edgeStyle=orthogonalEdgeStyle;rounded=0;orthogonalLoop=1;jettySize=auto;html=1;exitX=0.5;exitY=1;exitDx=0;exitDy=0;entryX=0.5;entryY=0;entryDx=0;entryDy=0;" edge="1" parent="WIyWlLk6GJQsqaUBKTNV-1" source="TW_aJG5ZMSPKFCEFSIef-28" target="TW_aJG5ZMSPKFCEFSIef-11">
          <mxGeometry relative="1" as="geometry">
            <mxPoint x="554" y="687" as="targetPoint" />
            <Array as="points">
              <mxPoint x="674" y="647" />
              <mxPoint x="554" y="647" />
              <mxPoint x="554" y="677" />
              <mxPoint x="794" y="677" />
              <mxPoint x="794" y="37" />
              <mxPoint x="269" y="37" />
            </Array>
          </mxGeometry>
        </mxCell>
        <mxCell id="TW_aJG5ZMSPKFCEFSIef-28" value="LEDs APAGADOS" style="rounded=1;whiteSpace=wrap;html=1;fontSize=12;glass=0;strokeWidth=1;shadow=0;fillColor=#FFFFCC;" vertex="1" parent="WIyWlLk6GJQsqaUBKTNV-1">
          <mxGeometry x="614" y="567" width="120" height="40" as="geometry" />
        </mxCell>
        <mxCell id="TW_aJG5ZMSPKFCEFSIef-31" value="&lt;span style=&quot;color: rgb(0, 0, 0); font-family: Helvetica; font-size: 11px; font-style: normal; font-variant-ligatures: normal; font-variant-caps: normal; font-weight: 400; letter-spacing: normal; orphans: 2; text-align: center; text-indent: 0px; text-transform: none; widows: 2; word-spacing: 0px; -webkit-text-stroke-width: 0px; background-color: rgb(251, 251, 251); text-decoration-thickness: initial; text-decoration-style: initial; text-decoration-color: initial; float: none; display: inline !important;&quot;&gt;Yes&lt;/span&gt;" style="text;whiteSpace=wrap;html=1;" vertex="1" parent="WIyWlLk6GJQsqaUBKTNV-1">
          <mxGeometry x="444" y="447" width="20" height="20" as="geometry" />
        </mxCell>
        <mxCell id="TW_aJG5ZMSPKFCEFSIef-32" value="&lt;span style=&quot;color: rgb(0, 0, 0); font-family: Helvetica; font-size: 11px; font-style: normal; font-variant-ligatures: normal; font-variant-caps: normal; font-weight: 400; letter-spacing: normal; orphans: 2; text-align: center; text-indent: 0px; text-transform: none; widows: 2; word-spacing: 0px; -webkit-text-stroke-width: 0px; background-color: rgb(251, 251, 251); text-decoration-thickness: initial; text-decoration-style: initial; text-decoration-color: initial; float: none; display: inline !important;&quot;&gt;No&lt;/span&gt;" style="text;whiteSpace=wrap;html=1;" vertex="1" parent="WIyWlLk6GJQsqaUBKTNV-1">
          <mxGeometry x="644" y="447" width="20" height="20" as="geometry" />
        </mxCell>
      </root>
    </mxGraphModel>
  </diagram>
</mxfile>
